<?xml version="1.0" encoding="UTF-8"?>
<svg width="400" height="300" viewBox="0 0 400 300" fill="none" xmlns="http://www.w3.org/2000/svg">
  <!-- Sources -->
  <circle cx="50" cy="100" r="15" fill="#0EA5E9" fill-opacity="0.2" stroke="#0EA5E9" stroke-width="2"/>
  <circle cx="50" cy="200" r="15" fill="#0EA5E9" fill-opacity="0.2" stroke="#0EA5E9" stroke-width="2"/>
  
  <!-- Beam Splitter -->
  <g transform="translate(200 150) rotate(45)">
    <rect x="-20" y="-20" width="40" height="40" fill="#8B5CF6" fill-opacity="0.1" stroke="#8B5CF6" stroke-width="2"/>
    <line x1="-20" y1="-20" x2="20" y2="20" stroke="#8B5CF6" stroke-width="2"/>
  </g>
  
  <!-- Detectors -->
  <g transform="translate(350 100)">
    <circle r="15" fill="#EF4444" fill-opacity="0.2" stroke="#EF4444" stroke-width="2"/>
    <path d="M-8,-8 L8,8 M-8,8 L8,-8" stroke="#EF4444" stroke-width="2"/>
  </g>
  <g transform="translate(350 200)">
    <circle r="15" fill="#EF4444" fill-opacity="0.2" stroke="#EF4444" stroke-width="2"/>
    <path d="M-8,-8 L8,8 M-8,8 L8,-8" stroke="#EF4444" stroke-width="2"/>
  </g>
  
  <!-- Connections -->
  <path d="M65,100 Q132.5,100 187,137" stroke="#94A3B8" stroke-width="2" stroke-dasharray="4"/>
  <path d="M65,200 Q132.5,200 187,163" stroke="#94A3B8" stroke-width="2" stroke-dasharray="4"/>
  <path d="M213,137 Q281.5,100 335,100" stroke="#94A3B8" stroke-width="2" stroke-dasharray="4"/>
  <path d="M213,163 Q281.5,200 335,200" stroke="#94A3B8" stroke-width="2" stroke-dasharray="4"/>
</svg>
