<?xml version="1.0" encoding="UTF-8"?>
<svg width="400" height="300" viewBox="0 0 400 300" fill="none" xmlns="http://www.w3.org/2000/svg">
  <!-- Source -->
  <circle cx="50" cy="150" r="15" fill="#0EA5E9" fill-opacity="0.2" stroke="#0EA5E9" stroke-width="2"/>
  
  <!-- First Beam Splitter -->
  <g transform="translate(150 150) rotate(45)">
    <rect x="-20" y="-20" width="40" height="40" fill="#8B5CF6" fill-opacity="0.1" stroke="#8B5CF6" stroke-width="2"/>
    <line x1="-20" y1="-20" x2="20" y2="20" stroke="#8B5CF6" stroke-width="2"/>
  </g>
  
  <!-- Phase Shifter -->
  <g transform="translate(250 100)">
    <circle r="15" fill="#22C55E" fill-opacity="0.2" stroke="#22C55E" stroke-width="2"/>
    <path d="M-8,0 L8,0 M0,-8 L0,8" stroke="#22C55E" stroke-width="2"/>
  </g>
  
  <!-- Second Beam Splitter -->
  <g transform="translate(350 150) rotate(45)">
    <rect x="-20" y="-20" width="40" height="40" fill="#8B5CF6" fill-opacity="0.1" stroke="#8B5CF6" stroke-width="2"/>
    <line x1="-20" y1="-20" x2="20" y2="20" stroke="#8B5CF6" stroke-width="2"/>
  </g>
  
  <!-- Detectors -->
  <g transform="translate(450 100)">
    <circle r="15" fill="#EF4444" fill-opacity="0.2" stroke="#EF4444" stroke-width="2"/>
    <path d="M-8,-8 L8,8 M-8,8 L8,-8" stroke="#EF4444" stroke-width="2"/>
  </g>
  <g transform="translate(450 200)">
    <circle r="15" fill="#EF4444" fill-opacity="0.2" stroke="#EF4444" stroke-width="2"/>
    <path d="M-8,-8 L8,8 M-8,8 L8,-8" stroke="#EF4444" stroke-width="2"/>
  </g>
  
  <!-- Connections -->
  <path d="M65,150 Q107.5,150 137,150" stroke="#94A3B8" stroke-width="2" stroke-dasharray="4"/>
  <path d="M163,137 Q206.5,100 235,100" stroke="#94A3B8" stroke-width="2" stroke-dasharray="4"/>
  <path d="M163,163 Q256.5,200 337,163" stroke="#94A3B8" stroke-width="2" stroke-dasharray="4"/>
  <path d="M265,100 Q306.5,100 337,137" stroke="#94A3B8" stroke-width="2" stroke-dasharray="4"/>
  <path d="M363,137 Q406.5,100 435,100" stroke="#94A3B8" stroke-width="2" stroke-dasharray="4"/>
  <path d="M363,163 Q406.5,200 435,200" stroke="#94A3B8" stroke-width="2" stroke-dasharray="4"/>
</svg>
